/* XPM */
static char *dummy[]={
"64 64 7 1",
"# c #3c1911",
"a c #401a12",
"b c #441b12",
". c #491d13",
"c c #65281a",
"d c #7a311f",
"e c #923926",
"..##..a.b#..b..ab..a..b#.ab..a..a..#b..b..#.b..ab..ab.b...b..a..",
".cdddeeeeeeeeee..cdddeeeeeeeeeeb.ddeeeeeeeeeeee..dddddddeeeeeeeb",
"bcddddddedddeeeb.cddddddedddeee..dddddddeedddeeb.ddddddddeddeee.",
".ccddddddddddee.#cdddddddedddee.acddddddeddddde..cdddddddddddee.",
"accddddddddddde.bccddddddddddde#.cddddddddddddea.cdddddddddddde#",
".cccccccddddddd#.cccccccdddddde.#ccccccdddddddd.acccdddddddddde.",
".cccccccccccccc.acccccccccccccca.cccccccccccddd..ccccccccddddde.",
"ab..a..b..#.a..a..#..a.b..##...ba..ba..bb.#a..#ab.#.a.bb..##..ab",
"#...b#.#b...aab...##...bb#...ab..b#..ab.b...b..a#..bb..#b#....b#",
"eeeeeee.adddddddeeeeeee..dddeeeeeeeeeee..cdddddeeeeeeee..cddddde",
"dddddee..dddddeeeeeeeee#.cdddddddeeeeee#.cccdddddeddeee.accddddd",
"dddddde..cdddddddedddee#bcddddddddddeee.#ccddddddedddde#bccddddd",
"dddddee..cdddddddedddde..ccccddddddddde.bcddddddddddddeb.ccddddd",
"ccdddddbacccccdddddddde..cccccccccddddea.cddcccccdddccd..cdddccc",
"ccccccc.acccccccccddddd.acccccccccccccc..ccccccccccccccaaccccccc",
"#....#bab#....ab...b#..bb..a#..b...b...bba..ba..#b.aa..ab#....ab",
"a#..b...b..bb..abb...ab#.ab...baa##...a...#b..aab...ba..aa.##..a",
"#ddeeeeeeeeeeee..dddddddeeeeeee.#cdddeeeeeeeeee.bcdddeeeeeeeeee.",
".dddddddeedddee.addddddddeddeee..cddddddedddeeeb.cddddddedddeeea",
".cddddddedddddea.cdddddddddddeea.ccddddddddddee..cdddddddedddee.",
"acdddddddddddde..cdddddddddddde.accdddddddddddea.ccddddddddddde.",
".ccccccdddddddd#acccdddddddddde.#cccccccddddddd.acccccccdddddde#",
"#cccccccccccddd#.ccccccccdddddea.cccccccccccccc..cccccccccccccc.",
"a..b.b..b..aa.#.b.#..ab..a#..a.bab..ab..b#..a.#ab.#.aa..a..#b..b",
".ba.b..#b#..a..#.b..a..b..bb..b.a..#a..bb.a..b..#..b..a#b#..a.b.",
"eeeeeee.acdddddeeeeeeee..cdddddeeeeeeee#.dddddddeeeeeeea.dddeeee",
"deeeeee#.cccdddddeddeeea.ccddddddddddee.adddddeeeeeeeee..cdddddd",
"ddddeee##ccddddddedddde.bccddddddddddde.bcdddddddedddee.bcdddddd",
"dddddde..cdddddddddddde.#ccddddddddddeeb.cdddddddeddddeb.ccccddd",
"ccddddea.cddcccccdddccdb.cdddcccccddddd.acccccdddddddde.accccccc",
"ccccccc.acccccccccccccc..cccccccccccccc..cccccccccddddd..ccccccc",
"#..aa.bab..a##.b#..b#..bb#..##..##...#.bb..#..a#..a..#.a.#b.#..b",
".##..aa.b.#b..a.bb.a..b#.ab..a.aa#..b..b..#b.aa.bb..ba..aa...aba",
"#ceeeeeeeeeeeee#.cdddeeeeeeeeee.#dddeeeeeeeeeee..dddddddeeeeeee.",
"bcddedddddddeee.acddcddddddddee..cdddeeeddddeeebaddddddddddedee.",
".ccddddddddddde.#cccddddddddddea.cdddddddddddee.#cdddddddddeddea",
".ccddddcddddddea.ccddddddddcdde.accddddddddcdde..cdddddddddddde.",
"#cccddddcddddde..ccccdddddccddd#.cccccccddccdde#.ccddddddccdddd.",
".ccccccccccccee.acccccccccccccc.#ccccccccccccdd.acccccccccddddda",
"a..b.ba..##..b.abb..a.b.a..#..a.a..b..a..#..a..ab.#.a..ba..#..ab",
".b.bb..#b#..aab..b#..abbb#..a..#a..#a.bbbb..bb..#b..b.a#b#b..ab.",
"eeeeeeea.ceeeeeeeeeeeee.adddeeeeeeeeeee..ddddddeeeeeeee..cdddeee",
"dddeeee..cddddeeeeedeee..cddddeeeeddeee.addddddddedddee.acdddded",
"dddddde.#ccddddddddddee#bcdddddddddddee#.cddddddeddddde#.ccddddd",
"ddddddeb.cccdddddddddee.#cddddddccdddeeb.cddddddddddddd.#ccddddd",
"dddcddda.ccccccdddddcce..cccccdcdddddde.acccdddccccddee.acccdddd",
"cccccdd.accccccccccccccaacccccccccccdddaacccccccccddddda.ccccccc",
".b....b.b#...#a..#a..#abb..a..ab..a..#...a..ba..#.a.a..ab..a#.a.",
"a#.#.aa..##.ba..bb..ba..aa..#a.aa.#.b..bb...b..abb..ba..aa..#a.a",
"#dddeeeeeeeeeee#.dddddddeeeeeee..ceeeeeeeeeeeee.acdddeeeeeeeeee.",
".cdddeeeddddeee..ddddddddddedeea.cddedddddddeee..cddcddddddddee.",
".cdddddddddddeea#cdddddddddedde.accdddddddddddea.cccddddddddddea",
"accddddddddcdde.bcdddddddddddde#accddddcddddddeabccddddddddcdde.",
".cccccccddccdde..ccddddddccdddd..cccddddcddddde..ccccdddddccddd.",
"#ccccccccccccdd#.cccccccccddddd..ccccccccccccee..cccccccccccccca",
"a..b.ba..##..b.ab..#a.bb..#.b..bab..a..bb.#a..#abb.#a..b.a.#b..b",
".b..b..#b..b...#..##..b..#..aab...##.ab..b..b..a#..b..a.b#.b..b.",
"eeeeeee.addddddeeeeeeeea.cdddeeeeeeeeee.aceeeeeeeeeeeee..dddeeee",
"eeddeee..ddddddddedddee.acddddeddddeeee#.cddddeeeeedeeea.cddddee",
"dddddee#.cddddddeddddde.bccdddddddddddea.ccddddddddddee.bcdddddd",
"ccdddee.#cdddddddddddddb.ccddddddddddde.bcccdddddddddee.#cdddddd",
"ddddddebacccdddccccddeea.cccdddddddcddd.accccccdddddcceb.cccccdc",
"ccccddd..cccccccccddddd.accccccccccccdd..cccccccccccccc.accccccc",
"#..a.#b.b...##..##..#.a.b..a..a.##.b...b.aa..a.#..aa..bab..a#..b"};